<svg width="1024" height="1024" viewBox="0 0 1024 1024" fill="none" xmlns="http://www.w3.org/2000/svg">
<rect width="1024" height="1024" rx="76" fill="#F4476B"/>
<path d="M493.5 383.75H382V687H307V383.75H197V323H493.5V383.75ZM536.5 687V323H648.5C680.5 323 709.083 330.25 734.25 344.75C759.583 359.083 779.333 379.583 793.5 406.25C807.667 432.75 814.75 462.917 814.75 496.75V513.5C814.75 547.333 807.75 577.417 793.75 603.75C779.917 630.083 760.333 650.5 735 665C709.667 679.5 681.083 686.833 649.25 687H536.5ZM611.5 383.75V626.75H647.75C677.083 626.75 699.5 617.167 715 598C730.5 578.833 738.417 551.417 738.75 515.75V496.5C738.75 459.5 731.083 431.5 715.75 412.5C700.417 393.333 678 383.75 648.5 383.75H611.5Z" fill="white"/>
</svg>
